<svg xmlns="http://www.w3.org/2000/svg" id="fcaf27ad-0cd1-4b30-b749-00e238214d87" width="910.908" height="704.996" data-name="Layer 1" viewBox="0 0 910.908 704.996"><ellipse cx="697.317" cy="542.77" fill="#3f3d56" rx="48.503" ry="98.965"/><path fill="#6c63ff" d="M837.2664,831.34929c19.42587-116.55145.19558-232.6818-.00093-233.84029l-3.77868.64007c.19558,1.15288,19.31544,116.6731-.00094,232.57138Z" transform="translate(-144.42849 -126.5888)"/><rect width="3.833" height="49.74" x="818.153" y="636.629" fill="#6c63ff" transform="translate(-294.44613 946.03684) rotate(-61.8584)"/><rect width="49.741" height="3.833" x="841.491" y="671.34" fill="#6c63ff" transform="translate(-359.60704 361.93068) rotate(-28.15796)"/><ellipse cx="813.855" cy="386.144" fill="#e6e6e6" rx="94.866" ry="193.564"/><path fill="#6c63ff" d="M947.71657,829.26577c37.944-227.6604.38273-454.4917-.00094-456.75629l-3.77868.64007c.38273,2.259,37.8336,228.48015-.00094,455.48738Z" transform="translate(-144.42849 -126.5888)"/><rect width="3.833" height="97.287" x="913.97" y="448.714" fill="#6c63ff" transform="translate(-99.08394 943.80398) rotate(-61.8584)"/><rect width="97.287" height="3.833" x="957.786" y="518.439" fill="#6c63ff" transform="translate(-270.87542 409.92268) rotate(-28.15742)"/><path fill="#e6e6e6" d="M737.958,829.874H233.36182a7.00817,7.00817,0,0,1-7-7V504.02832a7.00786,7.00786,0,0,1,7-7H737.958a7.00818,7.00818,0,0,1,7,7V822.874A7.00849,7.00849,0,0,1,737.958,829.874Z" transform="translate(-144.42849 -126.5888)"/><path fill="#fff" d="M279.76611,535.666a3.00328,3.00328,0,0,0-3,3V788.2373a3.00328,3.00328,0,0,0,3,3h411.7876a3.00328,3.00328,0,0,0,3-3V538.666a3.00328,3.00328,0,0,0-3-3Z" transform="translate(-144.42849 -126.5888)"/><rect width="424.553" height="15.815" x="126.572" y="457.542" fill="#e6e6e6"/><rect width="424.553" height="15.815" x="126.572" y="534.859" fill="#e6e6e6"/><rect width="177.478" height="15.815" x="189.774" y="492.687" fill="#e6e6e6"/><rect width="424.553" height="15.815" x="126.572" y="616.569" fill="#e6e6e6"/><rect width="15.815" height="218.157" x="181.866" y="408.077" fill="#e6e6e6"/><rect width="15.815" height="135.568" x="477.076" y="408.077" fill="#e6e6e6"/><rect width="15.815" height="257.571" x="357.586" y="408.077" fill="#e6e6e6"/><rect width="15.815" height="128.153" x="267.09" y="537.495" fill="#e6e6e6"/><circle cx="365.494" cy="544.767" r="20.208" fill="#6c63ff"/><polygon fill="#3f3d56" points="910.513 704.996 0 704.996 0 702.814 910.908 702.814 910.513 704.996"/><circle cx="367.916" cy="300.067" r="124.655" fill="#6c63ff"/><polygon fill="#6c63ff" points="369.135 502.707 329.753 435.433 290.371 368.159 368.323 367.69 446.275 367.221 407.705 434.964 369.135 502.707"/><circle cx="368.917" cy="299.283" r="44.724" fill="#fff"/><path fill="#2f2e41" d="M509.46118,127.22932s-26.67361-7.51371-34.563,28.92773-1.87841,54.85-1.87841,54.85l59.546-6.95016S549.47162,138.312,509.46118,127.22932Z" transform="translate(-144.42849 -126.5888)"/><path fill="#ffb9b9" d="M469.55423,285.065s-39.12585,3.89676-32.157,19.69272,6.96878,17.1897,6.96878,17.1897l34.37939,61.32544,11.15009-11.61465s-12.54386-27.41062-12.54386-36.23777S464.3432,311.262,464.3432,311.262l22.76474-1.85833Z" transform="translate(-144.42849 -126.5888)"/><path fill="#ffb9b9" d="M576.77316,303.82857l13.00843,28.33979s9.75631,9.75631,20.4418,48.78158,13.00842,37.63153,13.00842,37.63153l-16.26053,3.25211s-18.11886-42.27738-24.15851-45.52948-13.473-32.98566-13.473-32.98566l-21.371-26.946,6.50421-14.40219Z" transform="translate(-144.42849 -126.5888)"/><path fill="#2f2e41" d="M560.97723,271.30749l19.97718,37.167S555.86673,296.85979,552.15,322.41207l-22.76474-17.6543s-31.59188,10.22089-50.63989,6.50418c0,0,5.575-17.65429-14.40219-25.55227l45.06488-5.575-1.85834-9.75632,4.64588-9.29175Z" transform="translate(-144.42849 -126.5888)"/><path fill="#2f2e41" d="M481.5329,374.91033s-12.54386-1.85834-9.29172,9.29172l6.50421,22.30014s-8.36255,22.76474,4.64588,17.6543,21.371-36.70234,21.371-36.70234,5.575-24.1585,0-24.1585-23.22934-3.71668-21.371,0S481.5329,374.91033,481.5329,374.91033Z" transform="translate(-144.42849 -126.5888)"/><path fill="#2f2e41" d="M621.83807,412.07726s-16.26052-4.18127-19.97723,2.32294-2.78751,27.87518-2.78751,28.33978,5.575,5.11044,7.43338,5.11044,13.473,20.90641,29.269,13.473S621.83807,412.07726,621.83807,412.07726Z" transform="translate(-144.42849 -126.5888)"/><circle cx="504.762" cy="165.846" r="18.119" fill="#ffb9b9" transform="matrix(0.16018, -0.98709, 0.98709, 0.16018, 115.77492, 510.93639)"/><path fill="#ffb9b9" d="M519.629,169.56306s3.71667,19.51263,6.96881,22.30015-24.62308,6.9688-24.62308,6.9688,4.18128-13.473-.92917-20.44182S519.629,169.56306,519.629,169.56306Z" transform="translate(-144.42849 -126.5888)"/><path fill="#d0cde1" d="M568.41061,280.13467c-3.16384,0-11.21978-1.31012-20.25137-2.99659-7.81427-1.4588-16.36737-3.19171-23.11319-4.59475-7.2243-1.50525-12.38583-2.62955-12.38583-2.62955s-1.85834,11.61465-7.898,10.22089c-5.20334-1.19864-20.753-55.51343-24.95758-70.52424a5.22178,5.22178,0,0,1,2.309-5.86773l21.357-13.041,5.47284,2.09063s9.24527-7.14535,14.61121-7.28936,14.65771-1.53778,14.65771-1.53778,10.68549.92918,12.54386,8.82714,2.7875,57.14415,9.75631,65.9713S577.23776,280.13467,568.41061,280.13467Z" transform="translate(-144.42849 -126.5888)"/><path fill="#ffb9b9" d="M503.36847,306.15148s0,18.11887,12.07925,15.33136.92917-19.51263.92917-19.51263Z" transform="translate(-144.42849 -126.5888)"/><path fill="#ffb9b9" d="M536.81873,308.00985s-4.18128,21.371-13.00843,18.11886,0-22.30017,0-22.30017Z" transform="translate(-144.42849 -126.5888)"/><path d="M556.33139,257.36993s-4.54831,10.85275-8.17212,19.76815c-7.81427-1.4588-16.36737-3.19171-23.11319-4.59475a13.30234,13.30234,0,0,1,2.01633-3.55872c3.2521-3.7167,1.39377-4.64587,1.39377-4.64587-2.78751-5.575-.46457-13.00843-.46457-13.00843-5.575-14.86676,2.7875-33.45025,2.7875-33.45025Z" opacity=".15" transform="translate(-144.42849 -126.5888)" style="isolation:isolate"/><path fill="#d0cde1" d="M532.17285,217.88006s-8.36255,18.58346-2.7875,33.45025c0,0-2.32294,7.43338.46456,13.00843,0,0,1.85834.92917-1.39376,4.64587s-6.03962,16.7251-3.71668,19.51263-3.2521,7.898-1.85834,10.68549-2.32293,6.50421-2.32293,6.50421,13.93759,2.78751,16.26053,6.96878c0,0,2.7875-3.2521,1.39376-6.96878s-.46457-5.11047.92917-7.43338,5.575-7.43338,6.03961-9.75632S557.72513,257.37,557.72513,257.37l-5.665-52.49179Z" transform="translate(-144.42849 -126.5888)"/><path fill="#d0cde1" d="M483.85583,204.87163l-.868.15781a5.22217,5.22217,0,0,0-4.29025,5.17661c.03308,4.66458.29587,12.94275,1.44153,24.39914,1.85834,18.58346,8.36255,46.45864,9.75632,49.24618a148.2977,148.2977,0,0,0,7.43338,14.40219c4.18127,6.96881,5.11047,4.64588,4.18127,7.898a4.89285,4.89285,0,0,0,1.39377,5.11048s8.36255-9.29175,16.72513-4.18128a10.35185,10.35185,0,0,0,.92917-4.18127c0-2.32294,1.39376-4.64588-.92917-6.03965s1.39377-7.43338-2.32294-10.68548-4.18127-2.78751-3.71671-6.03964a13.8389,13.8389,0,0,0-.92916-6.50421Z" transform="translate(-144.42849 -126.5888)"/><path fill="#2f2e41" d="M511.53613,142.57154s-7.5137,19.9113-25.92227,28.17636l-3.00546-17.65719Z" transform="translate(-144.42849 -126.5888)"/><ellipse cx="377.988" cy="32.289" fill="#ffb9b9" rx="2.555" ry="4.878"/></svg>